HIERARCHY
ROOT mixamorig:Hips
{
	OFFSET -0.000419 2.091508 -0.014164
	CHANNELS 6 Xposition Yposition Zposition Xrotation Yrotation Zrotation
	JOINT mixamorig:Spine
	{
		OFFSET -0.001948 0.198048 -0.038897
		CHANNELS 6 Xposition Yposition Zposition Xrotation Yrotation Zrotation
		JOINT mixamorig:Spine1
		{
			OFFSET -0.002704 0.235003 -0.023603
			CHANNELS 3 Xrotation Yrotation Zrotation
			JOINT mixamorig:Spine2
			{
				OFFSET -0.001091 0.278075 -0.011954
				CHANNELS 3 Xrotation Yrotation Zrotation
				JOINT mixamorig:Neck
				{
					OFFSET 0.005730 0.310620 0.037617
					CHANNELS 6 Xposition Yposition Zposition Xrotation Yrotation Zrotation
					JOINT mixamorig:Head
					{
						OFFSET 0.010419 0.222311 0.065134
						CHANNELS 6 Xposition Yposition Zposition Xrotation Yrotation Zrotation
						End Site
						{
							OFFSET 0.010419 0.222311 0.065135
						}
					}
				}
				JOINT mixamorig:LeftShoulder
				{
					OFFSET 0.129541 0.188949 0.026781
					CHANNELS 6 Xposition Yposition Zposition Xrotation Yrotation Zrotation
					JOINT mixamorig:LeftArm
					{
						OFFSET 0.262609 0.007741 -0.040542
						CHANNELS 3 Xrotation Yrotation Zrotation
						JOINT mixamorig:LeftForeArm
						{
							OFFSET 0.551277 -0.000001 -0.000000
							CHANNELS 6 Xposition Yposition Zposition Xrotation Yrotation Zrotation
							JOINT mixamorig:LeftHand
							{
								OFFSET 0.527734 -0.000000 0.000000
								CHANNELS 3 Xrotation Yrotation Zrotation
								End Site
								{
									OFFSET 0.527734 0.000000 0.000000
								}
							}
						}
					}
				}
				JOINT mixamorig:RightShoulder
				{
					OFFSET -0.126373 0.192154 0.021809
					CHANNELS 6 Xposition Yposition Zposition Xrotation Yrotation Zrotation
					JOINT mixamorig:RightArm
					{
						OFFSET -0.263354 0.004609 -0.054230
						CHANNELS 3 Xrotation Yrotation Zrotation
						JOINT mixamorig:RightForeArm
						{
							OFFSET -0.558427 -0.000001 -0.000000
							CHANNELS 6 Xposition Yposition Zposition Xrotation Yrotation Zrotation
							JOINT mixamorig:RightHand
							{
								OFFSET -0.503137 0.000000 -0.000000
								CHANNELS 6 Xposition Yposition Zposition Xrotation Yrotation Zrotation
								End Site
								{
									OFFSET -0.503137 0.000000 0.000000
								}
							}
						}
					}
				}
			}
		}
	}
	JOINT mixamorig:LeftUpLeg
	{
		OFFSET 0.185244 -0.138385 0.026620
		CHANNELS 6 Xposition Yposition Zposition Xrotation Yrotation Zrotation
		JOINT mixamorig:LeftLeg
		{
			OFFSET -0.004065 -0.852313 -0.015108
			CHANNELS 3 Xrotation Yrotation Zrotation
			JOINT mixamorig:LeftFoot
			{
				OFFSET 0.004508 -0.854151 -0.051445
				CHANNELS 3 Xrotation Yrotation Zrotation
				JOINT mixamorig:LeftToeBase
				{
					OFFSET 0.026925 -0.213949 0.242907
					CHANNELS 3 Xrotation Yrotation Zrotation
					End Site
					{
						OFFSET -0.005614 0.004268 0.324736
					}
				}
			}
		}
	}
	JOINT mixamorig:RightUpLeg
	{
		OFFSET -0.184403 -0.144117 0.001603
		CHANNELS 6 Xposition Yposition Zposition Xrotation Yrotation Zrotation
		JOINT mixamorig:RightLeg
		{
			OFFSET 0.005492 -0.848120 0.010027
			CHANNELS 6 Xposition Yposition Zposition Xrotation Yrotation Zrotation
			JOINT mixamorig:RightFoot
			{
				OFFSET -0.005940 -0.852616 -0.051576
				CHANNELS 3 Xrotation Yrotation Zrotation
				JOINT mixamorig:RightToeBase
				{
					OFFSET -0.031537 -0.214911 0.248182
					CHANNELS 6 Xposition Yposition Zposition Xrotation Yrotation Zrotation
					End Site
					{
						OFFSET -0.045720 0.003764 0.326606
					}
				}
			}
		}
	}
}
MOTION
Frames: 7
Frame Time: 0.033333
0.052307 2.067410 0.047188 -4.756686 -27.118018 -5.153478 -0.001948 0.198048 -0.038898 1.821049 -2.898756 5.160768 -1.874117 -8.620046 5.596745 -2.004662 -8.602430 5.557079 0.005730 0.310620 0.037617 10.339101 3.474601 -2.921071 0.010418 0.222311 0.065134 8.579981 14.504315 8.415894 0.129541 0.188949 0.026781 1.201760 -41.134524 -5.321524 -59.305897 -74.520560 -90.009046 0.551277 -0.000002 -0.000000 -0.000090 -62.978394 -0.000050 -1.831747 -16.144146 -15.537837 -0.126373 0.192154 0.021809 3.345843 14.667616 2.812759 2.074389 33.275042 62.287719 -0.558427 -0.000001 -0.000001 0.000024 94.990009 -0.000100 -0.503137 -0.000000 0.000000 -83.093930 -1.253566 33.861097 0.185244 -0.138385 0.026620 -7.518604 12.598742 9.460435 21.205050 10.001478 3.922793 -5.520367 17.437299 -10.307721 -4.418171 0.000005 0.000004 -0.184403 -0.144116 0.001603 -2.280998 -11.951927 -1.824215 0.005493 -0.848120 0.010027 11.595836 -5.271746 0.217518 -4.698525 17.476485 3.640839 -0.031537 -0.214911 0.248182 -7.437693 0.000009 -0.000021 
0.051694 2.067704 0.045819 -4.769250 -26.948998 -5.320291 -0.001948 0.198048 -0.038898 1.838161 -2.840947 5.123008 -1.838089 -8.498777 5.530993 -1.965040 -8.482139 5.490873 0.005730 0.310619 0.037617 10.064722 3.439751 -2.723228 0.010419 0.222311 0.065134 8.369425 14.538944 8.171199 0.129541 0.188948 0.026781 1.330730 -39.251625 -4.674321 -62.921567 -74.764692 -93.217329 0.551277 -0.000001 -0.000000 -0.000062 -62.549964 -0.000053 -2.524043 -16.413254 -14.601329 -0.126373 0.192154 0.021809 3.310843 15.219849 3.256532 1.413875 34.100884 62.164113 -0.558427 -0.000000 -0.000001 -0.000084 94.913873 0.000049 -0.503137 -0.000000 0.000000 -83.535884 -0.155405 33.425146 0.185244 -0.138385 0.026620 -7.562243 12.678011 9.696868 21.062678 10.001201 3.938085 -5.432958 17.156949 -10.281505 -4.420938 -0.000002 0.000001 -0.184403 -0.144116 0.001603 -2.084046 -11.856814 -1.537937 0.005492 -0.848120 0.010027 11.324576 -5.247930 0.187838 -4.501410 17.166642 3.616633 -0.031537 -0.214911 0.248182 -7.426842 0.000007 -0.000018 
0.051120 2.067940 0.044152 -4.772889 -26.648664 -5.444292 -0.001948 0.198048 -0.038898 1.848385 -2.761164 5.085914 -1.812547 -8.335753 5.469901 -1.935898 -8.320190 5.429033 0.005730 0.310620 0.037617 9.763591 3.402639 -2.637053 0.010419 0.222311 0.065134 8.013540 14.498914 7.852495 0.129541 0.188949 0.026781 1.403928 -37.117014 -4.023007 -67.398613 -74.918310 -97.249265 0.551277 -0.000001 -0.000000 -0.000067 -61.639677 -0.000031 -3.071121 -16.553594 -13.960700 -0.126373 0.192153 0.021809 3.315592 15.965857 3.536978 0.489361 34.874423 62.328905 -0.558427 -0.000001 -0.000001 -0.000067 94.861205 0.000051 -0.503137 -0.000000 -0.000000 -84.247084 0.966455 33.034435 0.185244 -0.138386 0.026620 -7.630422 12.752481 9.905271 20.907679 10.000604 3.950497 -5.347270 16.754345 -10.222918 -4.428401 0.000004 -0.000002 -0.184403 -0.144116 0.001603 -1.899411 -11.780671 -1.283937 0.005493 -0.848120 0.010027 11.085456 -5.226772 0.158496 -4.338771 16.748469 3.581569 -0.031537 -0.214911 0.248182 -7.415938 0.000007 -0.000017 
0.050614 2.068169 0.042362 -4.767310 -26.188255 -5.505713 -0.001948 0.198048 -0.038898 1.843091 -2.650833 5.055703 -1.812750 -8.116307 5.416604 -1.934086 -8.101637 5.374547 0.005730 0.310620 0.037617 9.497622 3.344589 -2.731319 0.010419 0.222311 0.065135 7.543167 14.230482 7.475429 0.129541 0.188948 0.026781 1.389864 -35.073151 -3.577170 -71.625981 -74.921199 -100.973835 0.551277 -0.000001 -0.000000 -0.000053 -60.439183 -0.000030 -3.636498 -16.268638 -14.002344 -0.126373 0.192153 0.021809 3.401344 16.718409 3.382752 -0.809295 35.574094 63.095922 -0.558427 -0.000001 -0.000001 -0.000088 94.787815 -0.000023 -0.503137 -0.000000 -0.000000 -85.088871 2.325875 32.533547 0.185244 -0.138386 0.026620 -7.722038 12.820016 10.078366 20.751175 10.000196 3.937568 -5.257734 16.193784 -10.142829 -4.436146 0.000010 -0.000000 -0.184403 -0.144117 0.001603 -1.719400 -11.751089 -1.092363 0.005493 -0.848120 0.010027 10.874897 -5.205487 0.139736 -4.217532 16.220123 3.535190 -0.031537 -0.214911 0.248182 -7.405165 -0.000001 -0.000014 
0.050119 2.068451 0.040534 -4.753536 -25.540731 -5.511583 -0.001948 0.198048 -0.038898 1.822032 -2.511964 5.025226 -1.837038 -7.843277 5.356701 -1.958450 -7.829351 5.312646 0.005730 0.310619 0.037617 9.272336 3.247675 -2.919667 0.010419 0.222311 0.065134 7.116632 13.707352 7.036244 0.129541 0.188949 0.026782 1.287987 -33.253339 -3.435796 -75.245455 -74.882963 -103.996932 0.551277 -0.000001 -0.000000 -0.000074 -59.131318 -0.000029 -4.340389 -15.329224 -14.714084 -0.126373 0.192154 0.021809 3.555753 17.268313 2.828170 -2.465075 36.286565 64.411027 -0.558428 -0.000001 -0.000000 -0.000024 94.613365 0.000027 -0.503137 -0.000000 -0.000000 -85.866399 3.953335 31.830263 0.185244 -0.138385 0.026620 -7.838649 12.889483 10.236266 20.587078 10.000354 3.887825 -5.146278 15.429131 -10.052181 -4.439164 -0.000001 -0.000001 -0.184403 -0.144116 0.001603 -1.514610 -11.750447 -0.929753 0.005492 -0.848120 0.010027 10.663010 -5.189234 0.103235 -4.150707 15.536170 3.471568 -0.031537 -0.214911 0.248182 -7.394435 0.000001 -0.000015 
0.049573 2.068909 0.038669 -4.744571 -24.723302 -5.467210 -0.001948 0.198048 -0.038898 1.796683 -2.364816 4.975534 -1.865632 -7.551439 5.265660 -1.984897 -7.538526 5.218983 0.005730 0.310619 0.037617 9.049206 3.117337 -3.031137 0.010418 0.222311 0.065134 6.905050 13.086759 6.531651 0.129541 0.188949 0.026781 1.166114 -31.567741 -3.429461 -78.534840 -74.811274 -106.629614 0.551277 -0.000001 -0.000000 -0.000055 -57.861285 -0.000017 -5.057960 -13.997627 -15.591869 -0.126373 0.192153 0.021809 3.714868 17.618265 2.195312 -4.295214 37.052451 65.833127 -0.558427 -0.000001 -0.000001 0.000008 94.319305 -0.000029 -0.503137 -0.000000 0.000000 -86.518341 5.689718 30.947857 0.185244 -0.138386 0.026620 -7.965665 12.968548 10.369619 20.406319 10.000754 3.814148 -5.001133 14.479559 -9.944547 -4.435314 0.000004 0.000001 -0.184403 -0.144117 0.001603 -1.266997 -11.753980 -0.781692 0.005492 -0.848120 0.010027 10.424882 -5.171453 0.025188 -4.106056 14.681174 3.422770 -0.031537 -0.214911 0.248182 -7.383327 0.000017 -0.000016 
0.048953 2.069486 0.036750 -4.752402 -23.805388 -5.372324 -0.001948 0.198048 -0.038897 1.782909 -2.229315 4.893402 -1.874887 -7.276281 5.135030 -1.989102 -7.264749 5.086176 0.005730 0.310619 0.037617 8.782162 2.974992 -2.968026 0.010419 0.222311 0.065135 6.956434 12.546490 5.982879 0.129541 0.188949 0.026781 1.096622 -29.883628 -3.311575 -81.644577 -74.566411 -109.102204 0.551277 -0.000001 -0.000000 -0.000044 -56.733501 -0.000029 -5.673905 -13.023040 -16.109985 -0.126373 0.192154 0.021809 3.848855 18.014591 1.713941 -6.073878 37.765024 66.943347 -0.558427 -0.000001 -0.000001 -0.000107 93.998286 0.000103 -0.503137 0.000000 -0.000000 -87.224487 7.395701 29.988741 0.185244 -0.138385 0.026620 -8.083228 13.055674 10.454021 20.214717 10.000922 3.731442 -4.823933 13.432575 -9.812155 -4.421582 0.000006 -0.000002 -0.184403 -0.144116 0.001603 -1.014145 -11.745081 -0.667068 0.005492 -0.848120 0.010027 10.220512 -5.154876 -0.090086 -4.095188 13.712652 3.397067 -0.031537 -0.214911 0.248182 -7.371754 0.000017 -0.000015 
